<?xml version="1.0" encoding="UTF-8"?>
<svg width="248px" height="60px" viewBox="0 0 248 60" version="1.1" xmlns="http://www.w3.org/2000/svg" xmlns:xlink="http://www.w3.org/1999/xlink">
    <title>Group 4</title>
    <defs>
        <linearGradient x1="3.27777778%" y1="0%" x2="96.7222222%" y2="100%" id="linearGradient-1">
            <stop stop-color="#F2385D" offset="0%"></stop>
            <stop stop-color="#760630" offset="100%"></stop>
        </linearGradient>
    </defs>
    <g id="Page-3" stroke="none" stroke-width="1" fill="none" fill-rule="evenodd">
        <g id="iPhone-11-Pro-Copy-3" transform="translate(-64.000000, -658.000000)">
            <g id="Group-4" transform="translate(64.000000, 658.000000)">
                <path d="M80.8291016,27.2 C87.171875,27.2 90.9072266,23.2595703 90.9072266,16.5505859 C90.9072266,9.84160156 87.171875,6.06230469 80.8291016,6.06230469 L72.7578125,6.06230469 L72.7578125,27.2 L80.8291016,27.2 Z M80.3017578,23.5378906 L77.1816406,23.5378906 L77.1816406,9.70976562 L80.3017578,9.70976562 C84.1982422,9.70976562 86.3955078,12.1414062 86.3955078,16.5652344 C86.3955078,21.1355469 84.2568359,23.5378906 80.3017578,23.5378906 Z M95.5947266,9.37285156 C96.8398438,9.37285156 97.8212891,8.37675781 97.8212891,7.17558594 C97.8212891,5.95976562 96.8398438,4.97832031 95.5947266,4.97832031 C94.3496094,4.97832031 93.3681641,5.95976562 93.3681641,7.17558594 C93.3681641,8.37675781 94.3496094,9.37285156 95.5947266,9.37285156 Z M97.7480469,27.2 L97.7480469,11.496875 L93.4707031,11.496875 L93.4707031,27.2 L97.7480469,27.2 Z M106.419922,27.4490234 C108.734375,27.4490234 110.550781,26.2332031 111.3125,24.5046875 L111.385742,24.5046875 L111.385742,27.2 L115.604492,27.2 L115.604492,6.06230469 L111.327148,6.06230469 L111.327148,14.1921875 L111.239258,14.1921875 C110.477539,12.4490234 108.719727,11.2478516 106.449219,11.2478516 C102.508789,11.2478516 100.018555,14.3386719 100.018555,19.3191406 C100.018555,24.3435547 102.494141,27.4490234 106.419922,27.4490234 Z M107.870117,24.0066406 C105.716797,24.0066406 104.398438,22.2341797 104.398438,19.3484375 C104.398438,16.4773437 105.716797,14.6755859 107.870117,14.6755859 C109.994141,14.6755859 111.356445,16.4919922 111.356445,19.3484375 C111.356445,22.2195312 109.994141,24.0066406 107.870117,24.0066406 Z M125.667969,27.5369141 C130.414062,27.5369141 133.446289,24.5046875 133.446289,19.3337891 C133.446289,14.2361328 130.370117,11.1599609 125.667969,11.1599609 C120.96582,11.1599609 117.889648,14.2507812 117.889648,19.3337891 C117.889648,24.4900391 120.921875,27.5369141 125.667969,27.5369141 Z M125.667969,24.2703125 C123.558594,24.2703125 122.225586,22.4978516 122.225586,19.3484375 C122.225586,16.2283203 123.587891,14.4265625 125.667969,14.4265625 C127.748047,14.4265625 129.095703,16.2283203 129.095703,19.3484375 C129.095703,22.4978516 127.762695,24.2703125 125.667969,24.2703125 Z M139.920898,27.2 L139.920898,18.4255859 C139.920898,16.2136719 141.151367,14.9246094 143.260742,14.9246094 C143.875977,14.9246094 144.461914,15.0271484 144.813477,15.1736328 L144.813477,11.4089844 C144.520508,11.3210937 144.095703,11.2478516 143.597656,11.2478516 C141.751953,11.2478516 140.418945,12.3318359 139.862305,14.3240234 L139.774414,14.3240234 L139.774414,11.496875 L135.643555,11.496875 L135.643555,27.2 L139.920898,27.2 Z" id="Didor" fill="#333333" fill-rule="nonzero"></path>
                <path d="M82.1035156,54.3515625 C87.2890625,54.3515625 90.9072266,51.3779297 91.4052734,46.6611328 L87.0986328,46.6611328 C86.6298828,49.1660156 84.7402344,50.7041016 82.1181641,50.7041016 C78.734375,50.7041016 76.6103516,47.9208984 76.6103516,43.4091797 C76.6103516,38.9560547 78.7636719,36.1582031 82.1035156,36.1582031 C84.6816406,36.1582031 86.6738281,37.8574219 87.0839844,40.4501953 L91.390625,40.4501953 C91.0537109,35.71875 87.1865234,32.4960938 82.1035156,32.4960938 C75.9804688,32.4960938 72.0986328,36.6123047 72.0986328,43.4238281 C72.0986328,50.25 75.9511719,54.3515625 82.1035156,54.3515625 Z M100.970703,54.3369141 C105.716797,54.3369141 108.749023,51.3046875 108.749023,46.1337891 C108.749023,41.0361328 105.672852,37.9599609 100.970703,37.9599609 C96.2685547,37.9599609 93.1923828,41.0507812 93.1923828,46.1337891 C93.1923828,51.2900391 96.2246094,54.3369141 100.970703,54.3369141 Z M100.970703,51.0703125 C98.8613281,51.0703125 97.5283203,49.2978516 97.5283203,46.1484375 C97.5283203,43.0283203 98.890625,41.2265625 100.970703,41.2265625 C103.050781,41.2265625 104.398438,43.0283203 104.398438,46.1484375 C104.398438,49.2978516 103.06543,51.0703125 100.970703,51.0703125 Z M115.223633,54 L115.223633,44.5224609 C115.223633,42.7646484 116.322266,41.5341797 117.948242,41.5341797 C119.530273,41.5341797 120.482422,42.5302734 120.482422,44.2148438 L120.482422,54 L124.598633,54 L124.598633,44.4638672 C124.598633,42.7207031 125.667969,41.5341797 127.293945,41.5341797 C128.949219,41.5341797 129.857422,42.5302734 129.857422,44.3466797 L129.857422,54 L134.134766,54 L134.134766,43.2773438 C134.134766,40.1132812 132.069336,38.0039062 128.993164,38.0039062 C126.693359,38.0039062 124.818359,39.2490234 124.115234,41.2265625 L124.027344,41.2265625 C123.5,39.1757812 121.917969,38.0039062 119.647461,38.0039062 C117.508789,38.0039062 115.824219,39.2490234 115.165039,41.1386719 L115.077148,41.1386719 L115.077148,38.296875 L110.946289,38.296875 L110.946289,54 L115.223633,54 Z M141.12207,59.1269531 L141.12207,51.3632812 L141.209961,51.3632812 C142.044922,53.1357422 143.802734,54.2490234 146.087891,54.2490234 C150.013672,54.2490234 152.445312,51.2021484 152.445312,46.1484375 C152.445312,41.0800781 149.999023,38.0478516 146.014648,38.0478516 C143.744141,38.0478516 142.000977,39.1904297 141.151367,41.0361328 L141.063477,41.0361328 L141.063477,38.296875 L136.844727,38.296875 L136.844727,59.1269531 L141.12207,59.1269531 Z M144.579102,50.8066406 C142.484375,50.8066406 141.107422,48.9902344 141.107422,46.1484375 C141.107422,43.3359375 142.484375,41.4755859 144.579102,41.4755859 C146.717773,41.4755859 148.06543,43.3066406 148.06543,46.1484375 C148.06543,49.0048828 146.717773,50.8066406 144.579102,50.8066406 Z M161.849609,54.3369141 C166.595703,54.3369141 169.62793,51.3046875 169.62793,46.1337891 C169.62793,41.0361328 166.551758,37.9599609 161.849609,37.9599609 C157.147461,37.9599609 154.071289,41.0507812 154.071289,46.1337891 C154.071289,51.2900391 157.103516,54.3369141 161.849609,54.3369141 Z M161.849609,51.0703125 C159.740234,51.0703125 158.407227,49.2978516 158.407227,46.1484375 C158.407227,43.0283203 159.769531,41.2265625 161.849609,41.2265625 C163.929688,41.2265625 165.277344,43.0283203 165.277344,46.1484375 C165.277344,49.2978516 163.944336,51.0703125 161.849609,51.0703125 Z M176.102539,54 L176.102539,44.9912109 C176.102539,42.9550781 177.318359,41.5488281 179.237305,41.5488281 C181.15625,41.5488281 182.123047,42.7207031 182.123047,44.7714844 L182.123047,54 L186.400391,54 L186.400391,43.8779297 C186.400391,40.2011719 184.4375,38.0039062 180.951172,38.0039062 C178.53418,38.0039062 176.878906,39.1464844 176.043945,41.0947266 L175.956055,41.0947266 L175.956055,38.296875 L171.825195,38.296875 L171.825195,54 L176.102539,54 Z M196.273438,54.3369141 C200.155273,54.3369141 202.967773,52.2714844 203.436523,49.1953125 L199.510742,49.1953125 C199.115234,50.3964844 197.914062,51.1728516 196.34668,51.1728516 C194.164062,51.1728516 192.743164,49.6347656 192.743164,47.3935547 L192.743164,47.1298828 L203.568359,47.1298828 L203.568359,45.8261719 C203.568359,41.0507812 200.682617,37.9599609 196.112305,37.9599609 C191.46875,37.9599609 188.539062,41.2119141 188.539062,46.2216797 C188.539062,51.2460938 191.439453,54.3369141 196.273438,54.3369141 Z M199.452148,44.5078125 L192.787109,44.5078125 C192.933594,42.5449219 194.28125,41.1240234 196.15625,41.1240234 C198.060547,41.1240234 199.364258,42.5009766 199.452148,44.5078125 Z M210.042969,54 L210.042969,44.9912109 C210.042969,42.9550781 211.258789,41.5488281 213.177734,41.5488281 C215.09668,41.5488281 216.063477,42.7207031 216.063477,44.7714844 L216.063477,54 L220.34082,54 L220.34082,43.8779297 C220.34082,40.2011719 218.37793,38.0039062 214.891602,38.0039062 C212.474609,38.0039062 210.819336,39.1464844 209.984375,41.0947266 L209.896484,41.0947266 L209.896484,38.296875 L205.765625,38.296875 L205.765625,54 L210.042969,54 Z M229.320312,54.0585938 C230.18457,54.0585938 230.916992,53.9853516 231.356445,53.8828125 L231.356445,50.7333984 C231.092773,50.7773438 230.697266,50.8066406 230.316406,50.8066406 C229.056641,50.8066406 228.470703,50.2353516 228.470703,49.0341797 L228.470703,41.5195312 L231.371094,41.5195312 L231.371094,38.296875 L228.470703,38.296875 L228.470703,34.6787109 L224.193359,34.6787109 L224.193359,38.296875 L221.981445,38.296875 L221.981445,41.5195312 L224.193359,41.5195312 L224.193359,49.7666016 C224.193359,52.828125 225.628906,54.0585938 229.320312,54.0585938 Z M240.174805,54.3369141 C244.217773,54.3369141 247.044922,52.3007812 247.044922,49.2099609 C247.044922,46.9101562 245.697266,45.6210938 242.416016,44.9326172 L239.735352,44.3613281 C238.15332,44.0244141 237.567383,43.4824219 237.567383,42.6767578 C237.567383,41.6367188 238.548828,40.9628906 240.02832,40.9628906 C241.610352,40.9628906 242.5625,41.8271484 242.694336,43.1015625 L246.634766,43.1015625 C246.546875,40.0253906 244.056641,37.9599609 240.02832,37.9599609 C236.029297,37.9599609 233.451172,39.9228516 233.451172,42.9111328 C233.451172,45.2695312 234.989258,46.7929688 238.021484,47.4375 L240.702148,47.9941406 C242.240234,48.3457031 242.782227,48.8144531 242.782227,49.6494141 C242.782227,50.6748047 241.786133,51.3339844 240.174805,51.3339844 C238.475586,51.3339844 237.494141,50.6015625 237.230469,49.2246094 L233.055664,49.2246094 C233.333984,52.3154297 235.838867,54.3369141 240.174805,54.3369141 Z" id="Components" fill="#333333" fill-rule="nonzero"></path>
                <path d="M58,31.8171105 L57.9912979,31.9717016 C57.0164386,47.4983749 44.6224925,59.7497178 29.4661571,59.9957568 L29.4661571,59.9957568 L28.99787,59.999546 L3.55271368e-15,60 L0.00871821734,59.8518799 C0.970030546,44.5016433 13.1025666,32.3248572 28.0602744,31.8340659 L28.0602744,31.8340659 L28.5219188,31.8226397 L29.0025526,31.8186573 L58,31.8171105 Z M7.10542736e-15,-2.80664381e-13 L29.0001699,0.00155675474 L29.4644783,0.00531929168 C44.6041467,0.25083724 57.0127245,12.4824688 57.9909684,28.0241016 L57.9909684,28.0241016 L57.9990218,28.1828895 L29.0001805,28.1824261 L28.5172581,28.1783764 L28.0636581,28.1671782 C13.1227713,27.6794588 0.97374021,15.520467 0.00904226272,0.154425832 L0.00904226272,0.154425832 L7.10542736e-15,-2.80664381e-13 Z" id="Combined-Shape-Copy-29" fill="url(#linearGradient-1)"></path>
            </g>
        </g>
    </g>
</svg>