<?xml version="1.0" encoding="UTF-8"?>
<svg width="200px" height="62px" viewBox="0 0 200 62" version="1.1" xmlns="http://www.w3.org/2000/svg" xmlns:xlink="http://www.w3.org/1999/xlink">
    <title>Combined Shape Copy</title>
    <g id="Page-3" stroke="none" stroke-width="1" fill="none" fill-rule="evenodd">
        <g id="splashIcon" transform="translate(-1291.000000, -383.000000)" fill="#FFFFFF" fill-rule="nonzero">
            <path d="M1350.78689,415.797348 L1350.77792,415.956701 C1349.78308,431.801678 1337.25158,444.337603 1321.8418,444.832823 L1321.37396,444.844135 L1320.89125,444.848041 L1291,444.848509 L1291.00899,444.695826 C1291.99001,429.030903 1304.25726,416.572103 1319.4631,415.833608 L1319.92477,415.814825 L1320.40064,415.803047 L1320.89608,415.798942 L1350.78689,415.797348 Z M1458.10775,405.127955 C1466.1861,405.127955 1471.47101,410.412862 1471.47101,419.170708 C1471.47101,428.054384 1466.2616,433.263792 1458.10775,433.263792 C1449.95389,433.263792 1444.74448,428.029218 1444.74448,419.170708 C1444.74448,410.438028 1450.02939,405.127955 1458.10775,405.127955 Z M1440.81855,396.37011 L1440.81855,432.684969 L1433.57068,432.684969 L1433.57068,428.054384 L1433.44485,428.054384 C1432.1362,431.023999 1429.01559,433.112795 1425.03933,433.112795 C1418.29478,433.112795 1414.04169,427.777556 1414.04169,419.145541 C1414.04169,410.589026 1418.31995,405.278952 1425.08966,405.278952 C1428.99043,405.278952 1432.01037,407.342583 1433.31902,410.337363 L1433.31902,410.337363 L1433.47001,410.337363 L1433.47001,396.37011 L1440.81855,396.37011 Z M1381.07394,396.37011 C1391.97091,396.37011 1398.3883,402.862995 1398.3883,414.389125 C1398.3883,425.915255 1391.97091,432.684969 1381.07394,432.684969 L1381.07394,432.684969 L1367.20735,432.684969 L1367.20735,396.37011 Z M1410.14093,405.706778 L1410.14093,432.684969 L1402.79239,432.684969 L1402.79239,405.706778 L1410.14093,405.706778 Z M1488.9112,405.278952 C1489.76686,405.278952 1490.49668,405.404784 1491,405.555781 L1491,405.555781 L1491,412.0235 C1490.39601,411.771838 1489.38936,411.595674 1488.33238,411.595674 C1484.70844,411.595674 1482.59448,413.810302 1482.59448,417.610402 L1482.59448,417.610402 L1482.59448,432.684969 L1475.24594,432.684969 L1475.24594,405.706778 L1482.34282,405.706778 L1482.34282,410.563859 L1482.49382,410.563859 C1483.45013,407.141253 1485.74026,405.278952 1488.9112,405.278952 Z M1458.10775,410.740023 C1454.53414,410.740023 1452.19368,413.835468 1452.19368,419.195874 C1452.19368,424.606612 1454.48381,427.651725 1458.10775,427.651725 C1461.70652,427.651725 1463.99664,424.606612 1463.99664,419.195874 C1463.99664,413.835468 1461.68135,410.740023 1458.10775,410.740023 Z M1427.53079,411.167849 C1423.83135,411.167849 1421.56639,414.263294 1421.56639,419.195874 C1421.56639,424.15362 1423.83135,427.198733 1427.53079,427.198733 C1431.17989,427.198733 1433.52035,424.128453 1433.52035,419.195874 C1433.52035,414.28846 1431.17989,411.167849 1427.53079,411.167849 Z M1380.16795,402.636499 L1374.80755,402.636499 L1374.80755,426.393413 L1380.16795,426.393413 C1386.96283,426.393413 1390.6371,422.266153 1390.6371,414.414291 C1390.6371,406.814092 1386.86217,402.636499 1380.16795,402.636499 L1380.16795,402.636499 Z M1291,383 L1320.89362,383.001605 L1321.37223,383.005483 C1336.82227,383.256034 1349.5131,395.616101 1350.74381,411.407901 L1350.77758,411.887482 L1350.78588,412.051162 L1320.89363,412.050684 L1320.39583,412.04651 L1319.92826,412.034966 C1304.68108,411.537249 1292.25449,399.248098 1291.0426,383.633366 L1291.00932,383.159183 L1291,383 Z M1406.44149,394.507809 C1408.58062,394.507809 1410.26676,396.193946 1410.26676,398.282743 C1410.26676,400.346373 1408.58062,402.057676 1406.44149,402.057676 C1404.30236,402.057676 1402.61623,400.346373 1402.61623,398.282743 C1402.61623,396.193946 1404.30236,394.507809 1406.44149,394.507809 Z" id="Combined-Shape-Copy"></path>
        </g>
    </g>
</svg>